<svg width="23" height="23" viewBox="0 0 23 23" fill="none" xmlns="http://www.w3.org/2000/svg">
<path d="M0 8.17781C0 5.31528 0 3.88404 0.557076 2.79071C1.0471 1.829 1.829 1.0471 2.79071 0.557076C3.88404 0 5.31528 0 8.17781 0H14.8222C17.6847 0 19.116 0 20.2093 0.557076C21.171 1.0471 21.9529 1.829 22.4429 2.79071C23 3.88404 23 5.31528 23 8.17781V14.8222C23 17.6847 23 19.116 22.4429 20.2093C21.9529 21.171 21.171 21.9529 20.2093 22.4429C19.116 23 17.6847 23 14.8222 23H8.17781C5.31528 23 3.88404 23 2.79071 22.4429C1.829 21.9529 1.0471 21.171 0.557076 20.2093C0 19.116 0 17.6847 0 14.8222V8.17781Z" fill="white"/>
<path d="M16.4708 5.35815L11.5529 9.19624L6.52246 5.35815V5.35919L6.52854 5.36438V10.7387L11.4962 14.6597L16.4708 10.8901V5.35815Z" fill="#EA4335"/>
<path d="M17.7619 4.42451L16.4703 5.35808V10.8901L20.5344 7.76986V5.89022C20.5344 5.89022 20.0411 3.20566 17.7619 4.42451Z" fill="#FBBC05"/>
<path d="M16.4703 10.8901V18.0652H19.5852C19.5852 18.0652 20.4716 17.9739 20.5353 16.9636V7.7699L16.4703 10.8901Z" fill="#34A853"/>
<path d="M6.52756 18.0715V10.7387L6.52246 10.7335L6.52756 18.0715Z" fill="#C5221F"/>
<path d="M6.52221 5.35904L5.23775 4.43064C2.95856 3.2118 2.46423 5.89533 2.46423 5.89533V7.77491L6.52221 10.7334V5.35904Z" fill="#C5221F"/>
<path d="M6.52246 5.35931V10.7337L6.52756 10.7388V5.36451L6.52246 5.35931Z" fill="#C5221F"/>
<path d="M2.46423 7.77631V16.97C2.52704 17.9814 3.4144 18.0717 3.4144 18.0717H6.52929L6.52221 10.7337L2.46423 7.77631Z" fill="#4285F4"/>
</svg>
