<svg width="42" height="42" viewBox="0 0 42 42" fill="none" xmlns="http://www.w3.org/2000/svg">
<g clip-path="url(#clip0_36_266)">
<path d="M41.2081 19.1286L22.8702 0.792168C21.8149 -0.264056 20.102 -0.264056 19.0453 0.792168L15.2375 4.60001L20.0679 9.43044C21.1905 9.05118 22.4776 9.30556 23.3725 10.2005C24.2716 11.101 24.5242 12.3991 24.1357 13.5254L28.791 18.1807C29.9173 17.7927 31.2168 18.0438 32.1163 18.9448C33.3735 20.2014 33.3735 22.2383 32.1163 23.4959C30.8587 24.7535 28.8219 24.7535 27.5638 23.4959C26.6182 22.5494 26.3845 21.1604 26.8633 19.9954L22.5218 15.654L22.5214 27.0789C22.8278 27.231 23.1172 27.4333 23.3725 27.6876C24.6297 28.9443 24.6297 30.9812 23.3725 32.2397C22.1149 33.4969 20.0771 33.4969 18.8214 32.2397C17.5642 30.9812 17.5642 28.9443 18.8214 27.6876C19.132 27.3775 19.4914 27.1429 19.8748 26.9853V15.454C19.4914 15.2973 19.1324 15.0641 18.8214 14.7517C17.8688 13.8005 17.6398 12.4028 18.1278 11.2332L13.3665 6.47099L0.792758 19.0438C-0.263927 20.101 -0.263927 21.8139 0.792758 22.8701L19.1306 41.207C20.1864 42.2632 21.8988 42.2632 22.956 41.207L41.2081 22.9554C42.2643 21.8987 42.2643 20.1848 41.2081 19.1286Z" fill="#DE4C36"/>
</g>
<defs>
<clipPath id="clip0_36_266">
<rect width="42" height="42" fill="white"/>
</clipPath>
</defs>
</svg>
