<svg width="55" height="33" viewBox="0 0 55 33" fill="none" xmlns="http://www.w3.org/2000/svg">
<g clip-path="url(#clip0_35_216)">
<path d="M27.5 0C20.1667 0 15.5833 3.65714 13.75 10.9714C16.5 7.31429 19.7083 5.94286 23.375 6.85714C25.467 7.37879 26.9623 8.89255 28.6174 10.5682C31.3136 13.2979 34.4342 16.4571 41.25 16.4571C48.5833 16.4571 53.1667 12.8 55 5.48571C52.25 9.14286 49.0417 10.5143 45.375 9.6C43.283 9.07835 41.7877 7.5646 40.1326 5.88891C37.4364 3.15926 34.3158 0 27.5 0ZM13.75 16.4571C6.41667 16.4571 1.83333 20.1143 0 27.4286C2.75 23.7714 5.95833 22.4 9.625 23.3143C11.717 23.8359 13.2123 25.3497 14.8674 27.0254C17.5636 29.755 20.6842 32.9143 27.5 32.9143C34.8333 32.9143 39.4167 29.2571 41.25 21.9429C38.5 25.6 35.2917 26.9714 31.625 26.0571C29.533 25.5355 28.0377 24.0217 26.3826 22.3461C23.6864 19.6164 20.5658 16.4571 13.75 16.4571Z" fill="url(#paint0_linear_35_216)"/>
</g>
<defs>
<linearGradient id="paint0_linear_35_216" x1="-152.778" y1="1053.26" x2="4591.2" y2="3795.65" gradientUnits="userSpaceOnUse">
<stop stop-color="#2298BD"/>
<stop offset="1" stop-color="#0ED7B5"/>
</linearGradient>
<clipPath id="clip0_35_216">
<rect width="55" height="33" fill="white"/>
</clipPath>
</defs>
</svg>
