<svg width="34" height="34" viewBox="0 0 34 34" fill="none" xmlns="http://www.w3.org/2000/svg">
<path d="M17 5.66675C23.2593 5.66675 28.3333 10.7408 28.3333 17.0001C28.3333 22.0321 25.0523 26.2958 20.5138 27.7752C20.5152 27.771 20.5171 27.7649 20.5171 27.7649C20.5171 27.7649 19.7521 27.4064 19.7681 26.7666C19.7861 26.0625 19.7681 24.4192 19.7681 23.8161C19.7681 22.7806 19.1127 22.0467 19.1127 22.0467C19.1127 22.0467 24.2523 22.1043 24.2523 16.6204C24.2523 14.5044 23.1464 13.4036 23.1464 13.4036C23.1464 13.4036 23.7272 11.1445 22.9452 10.1869C22.0688 10.0924 20.4991 11.0246 19.8286 11.4604C19.8286 11.4604 18.7661 11.0251 16.9995 11.0251C15.2324 11.0251 14.1704 11.4604 14.1704 11.4604C13.5003 11.0251 11.9302 10.0924 11.0537 10.1869C10.2717 11.145 10.8526 13.4036 10.8526 13.4036C10.8526 13.4036 9.74663 14.5049 9.74663 16.6204C9.74663 22.1043 14.8863 22.0467 14.8863 22.0467C14.8863 22.0467 14.3683 22.6318 14.2554 23.4922C13.8965 23.614 13.369 23.7642 12.9426 23.7642C11.8272 23.7642 10.9787 22.68 10.6679 22.1785C10.3615 21.6836 9.73293 21.2685 9.1469 21.2685C8.7611 21.2685 8.57268 21.4616 8.57268 21.6822C8.57268 21.9027 9.11385 22.0566 9.47085 22.4656C10.2236 23.3279 10.2099 25.2673 12.8921 25.2673C13.1835 25.2673 13.778 25.1955 14.2252 25.1355C14.2223 25.7461 14.2219 26.3902 14.2313 26.7666C14.2474 27.4064 13.4824 27.7649 13.4824 27.7649C13.4824 27.7649 13.4843 27.771 13.4857 27.7752C8.94763 26.2958 5.66663 22.0321 5.66663 17.0001C5.66663 10.7408 10.7407 5.66675 17 5.66675Z" fill="white"/>
</svg>
