<svg width="42" height="42" viewBox="0 0 42 42" fill="none" xmlns="http://www.w3.org/2000/svg">
<g clip-path="url(#clip0_35_194)">
<path d="M0 0H42V42H0V0Z" fill="#F7DF1E"/>
<path d="M11.0433 35.0982L14.2574 33.1531C14.8775 34.2525 15.4415 35.1827 16.7945 35.1827C18.0915 35.1827 18.9091 34.6753 18.9091 32.702V19.282H22.8561V32.7578C22.8561 36.8458 20.4598 38.7065 16.9637 38.7065C13.8063 38.7065 11.9735 37.0713 11.0432 35.0979" fill="black"/>
<path d="M25 34.6753L28.2137 32.8146C29.0597 34.1962 30.1593 35.2111 32.1045 35.2111C33.7399 35.2111 34.7827 34.3934 34.7827 33.2657C34.7827 31.9124 33.7115 31.4331 31.9071 30.6439L30.9206 30.2207C28.0729 29.0087 26.1839 27.4863 26.1839 24.2722C26.1839 21.3119 28.4393 19.0564 31.9636 19.0564C34.4728 19.0564 36.2771 19.9305 37.5739 22.2141L34.5008 24.1875C33.8241 22.9753 33.0913 22.4961 31.9637 22.4961C30.8077 22.4961 30.0747 23.2291 30.0747 24.1875C30.0747 25.3717 30.8077 25.8511 32.4991 26.5841L33.4858 27.007C36.8408 28.4449 38.7298 29.9108 38.7298 33.2093C38.7298 36.7618 35.9387 38.7069 32.1891 38.7069C28.5241 38.7069 26.1557 36.9591 25 34.6753Z" fill="black"/>
</g>
<defs>
<clipPath id="clip0_35_194">
<rect width="42" height="42" fill="white"/>
</clipPath>
</defs>
</svg>
