<svg width="42" height="42" viewBox="0 0 42 42" fill="none" xmlns="http://www.w3.org/2000/svg">
<g clip-path="url(#clip0_35_239)">
<path d="M42 32.5289C41.3887 32.7601 40.714 32.7596 40.1031 32.5275C39.4921 32.2954 38.9873 31.8477 38.6838 31.2689L32.6463 22.9197L31.7713 21.7524L24.766 31.2794C24.4807 31.8339 24.0033 32.2655 23.4229 32.4935C22.8425 32.7216 22.1989 32.7304 21.6125 32.5184L30.639 20.4084L22.2425 9.46917C22.8463 9.2516 23.5065 9.24871 24.1122 9.461C24.7178 9.67329 25.2317 10.0878 25.5675 10.6347L31.8255 19.0872L38.1185 10.6697C38.406 10.125 38.8836 9.70505 39.4605 9.48952C40.0374 9.27399 40.6734 9.27796 41.2475 9.50067L37.989 13.8249L33.5755 19.5702C33.453 19.6795 33.3549 19.8135 33.2877 19.9634C33.2206 20.1133 33.1859 20.2757 33.1859 20.4399C33.1859 20.6042 33.2206 20.7666 33.2877 20.9164C33.3549 21.0663 33.453 21.2003 33.5755 21.3097L41.9825 32.5307L42 32.5289ZM0.00352099 20.2579L0.738521 16.6267C2.75802 9.44642 10.99 6.45917 16.653 10.9042C19.9693 13.5099 20.797 17.1989 20.6343 21.3569H1.95302C1.65027 28.7822 7.00877 33.2657 13.86 30.9749C14.9707 30.5751 15.9648 29.9061 16.7534 29.0277C17.542 28.1494 18.1004 27.0891 18.3785 25.9419C18.7408 24.7764 19.3375 24.5769 20.433 24.9129C20.2505 26.3346 19.7479 27.6964 18.9631 28.8958C18.1784 30.0952 17.1318 31.1011 15.9023 31.8377C13.8713 32.9486 11.541 33.3889 9.24461 33.0957C6.94826 32.8024 4.80342 31.7906 3.11677 30.2049C1.44907 28.3278 0.441154 25.9568 0.246771 23.4534C0.246771 23.0422 0.106771 22.6572 0.012271 22.2879C0.00375205 21.6119 -0.000331375 20.9358 2.09935e-05 20.2597L0.00352099 20.2579ZM1.97577 19.7574H18.8703C18.7653 14.3744 15.3685 10.5559 10.8378 10.5209C5.79427 10.4509 2.18577 14.1854 1.96352 19.7329L1.97577 19.7574Z" fill="black"/>
</g>
<defs>
<clipPath id="clip0_35_239">
<rect width="42" height="42" fill="white"/>
</clipPath>
</defs>
</svg>
