<svg width="70" height="38" viewBox="0 0 70 38" fill="none" xmlns="http://www.w3.org/2000/svg">
<path d="M65.1796 37.1379H5.02994C2.30539 37.1379 0 35.1548 0 32.8112V4.32675C0 1.98309 2.30539 0 5.02994 0H64.9701C67.6946 0 70 1.98309 70 4.32675V32.8112C70 35.1548 67.9042 37.1379 65.1796 37.1379ZM5.02994 2.8845C4.19162 2.8845 3.35329 3.60562 3.35329 4.32675V32.8112C3.35329 33.7126 4.19162 34.2534 5.02994 34.2534H64.9701C66.018 34.2534 66.6467 33.5323 66.6467 32.8112V4.32675C66.6467 3.42534 65.8084 2.8845 64.9701 2.8845C65.1796 2.8845 5.02994 2.8845 5.02994 2.8845ZM10.0599 28.4844V8.6535H16.7665L23.4731 15.8647L30.1796 8.6535H36.8862V28.4844H30.1796V17.1267L23.4731 24.338L16.7665 17.1267V28.4844H10.0599ZM52.1856 28.4844L42.1257 18.9295H48.8323V8.6535H55.5389V18.7492H62.2455L52.1856 28.4844Z" fill="black"/>
</svg>
