<svg width="42" height="42" viewBox="0 0 42 42" fill="none" xmlns="http://www.w3.org/2000/svg">
<g clip-path="url(#clip0_35_209)">
<path d="M20.8221 0.0119629C10.1856 0.0119637 10.8498 4.6427 10.8498 4.6427L10.8616 9.4401H21.0118V10.8805H6.83001C6.83001 10.8805 0.0236816 10.1056 0.0236816 20.88C0.0236809 31.6545 5.96439 31.2724 5.96439 31.2724H9.50985V26.2726C9.50985 26.2726 9.31874 20.3086 15.3557 20.3086H25.4229C25.4229 20.3086 31.079 20.4004 31.079 14.8208V5.59504C31.079 5.59504 31.9378 0.0119629 20.8221 0.0119629ZM15.2253 3.238C16.2351 3.238 17.0513 4.05742 17.0513 5.07125C17.0513 6.08508 16.2351 6.9045 15.2253 6.9045C14.2154 6.9045 13.3992 6.08508 13.3992 5.07125C13.3992 4.05742 14.2154 3.238 15.2253 3.238Z" fill="url(#paint0_linear_35_209)"/>
<path d="M21.1242 41.8561C31.7608 41.8561 31.0966 37.2254 31.0966 37.2254L31.0847 32.428H20.9345V30.9876H35.1163C35.1163 30.9876 41.9226 31.7625 41.9226 20.988C41.9226 10.2136 35.9819 10.5957 35.9819 10.5957H32.4365V15.5954C32.4365 15.5954 32.6276 21.5594 26.5906 21.5594H16.5234C16.5234 21.5594 10.8673 21.4677 10.8673 27.0473V36.273C10.8673 36.273 10.0086 41.8561 21.1242 41.8561ZM26.7211 38.6301C25.7112 38.6301 24.895 37.8107 24.895 36.7968C24.895 35.783 25.7112 34.9636 26.7211 34.9636C27.7309 34.9636 28.5472 35.783 28.5472 36.7968C28.5472 37.8107 27.7309 38.6301 26.7211 38.6301Z" fill="url(#paint1_linear_35_209)"/>
</g>
<defs>
<linearGradient id="paint0_linear_35_209" x1="402.68" y1="376.389" x2="2487.08" y2="2431.94" gradientUnits="userSpaceOnUse">
<stop stop-color="#387EB8"/>
<stop offset="1" stop-color="#366994"/>
</linearGradient>
<linearGradient id="paint1_linear_35_209" x1="605.158" y1="653.943" x2="2843.18" y2="2761.35" gradientUnits="userSpaceOnUse">
<stop stop-color="#FFE052"/>
<stop offset="1" stop-color="#FFC331"/>
</linearGradient>
<clipPath id="clip0_35_209">
<rect width="42" height="42" fill="white"/>
</clipPath>
</defs>
</svg>
