<svg width="31" height="31" viewBox="0 0 31 31" fill="none" xmlns="http://www.w3.org/2000/svg">
<path fill-rule="evenodd" clip-rule="evenodd" d="M12.7077 23.827C12.93 24.2435 13.1525 24.6189 13.3653 24.9515C11.105 24.4432 9.14379 23.145 7.78666 21.362C8.68234 20.8576 9.82952 20.3347 11.2086 19.9521C11.6006 21.4895 12.1536 22.788 12.7077 23.827ZM14.4173 22.9152C13.9359 22.0127 13.4535 20.8856 13.1059 19.5501C13.8542 19.4391 14.6529 19.375 15.5001 19.375C16.3472 19.375 17.146 19.4391 17.8941 19.55C17.5465 20.8856 17.0641 22.0127 16.5827 22.9152C16.1967 23.6389 15.8122 24.2167 15.5 24.6394C15.1878 24.2167 14.8033 23.6389 14.4173 22.9152ZM12.5937 15.5C12.5937 16.2545 12.6445 16.9706 12.734 17.6466C13.5972 17.5142 14.5201 17.4375 15.5001 17.4375C16.48 17.4375 17.4029 17.5141 18.266 17.6466C18.3555 16.9704 18.4062 16.2545 18.4062 15.5C18.4062 14.7455 18.3555 14.0296 18.266 13.3534C17.4029 13.4858 16.48 13.5625 15.5001 13.5625C14.5201 13.5625 13.5972 13.4858 12.734 13.3534C12.6445 14.0294 12.5937 14.7455 12.5937 15.5ZM10.8331 12.9539C10.7205 13.7534 10.6562 14.6028 10.6562 15.5C10.6562 16.3972 10.7205 17.2466 10.8331 18.0461C9.18812 18.4878 7.82598 19.1105 6.77252 19.7097C6.15735 18.4367 5.8125 17.0087 5.8125 15.5C5.8125 13.9913 6.15735 12.5633 6.77251 11.2903C7.82585 11.8894 9.18801 12.5122 10.8331 12.9539ZM13.1059 11.4499C13.8542 11.561 14.6529 11.625 15.5001 11.625C16.3472 11.625 17.146 11.561 17.8941 11.4499C17.5465 10.1145 17.0641 8.98733 16.5827 8.0848C16.1967 7.36113 15.8122 6.78327 15.5 6.36058C15.1878 6.78327 14.8033 7.36113 14.4173 8.08477C13.9359 8.9873 13.4535 10.1144 13.1059 11.4499ZM20.1669 12.954C20.2794 13.7535 20.3437 14.6029 20.3437 15.5C20.3437 16.3972 20.2794 17.2465 20.1669 18.046C21.8119 18.4878 23.174 19.1105 24.2275 19.7097C24.8426 18.4366 25.1875 17.0085 25.1875 15.5C25.1875 13.9915 24.8426 12.5634 24.2275 11.2904C23.1742 11.8895 21.812 12.5122 20.1669 12.954ZM23.2133 9.63813C22.3175 10.1426 21.1704 10.6654 19.7914 11.048C19.3994 9.51059 18.8465 8.21202 18.2923 7.17304C18.07 6.75641 17.8475 6.38116 17.6347 6.04849C19.895 6.5568 21.8563 7.85509 23.2133 9.63813ZM11.2086 11.0479C9.8296 10.6653 8.68245 10.1425 7.78667 9.63807C9.14379 7.85506 11.105 6.5568 13.3651 6.04849C13.1525 6.38116 12.93 6.7564 12.7077 7.17301C12.1536 8.21199 11.6006 9.51055 11.2086 11.0479ZM19.7914 19.952C19.3994 21.4895 18.8465 22.788 18.2923 23.827C18.07 24.2435 17.8475 24.6189 17.6347 24.9515C19.895 24.4432 21.8563 23.1449 23.2134 21.3618C22.3177 20.8574 21.1705 20.3347 19.7914 19.952ZM15.5 27.125C21.9204 27.125 27.125 21.9204 27.125 15.5C27.125 9.07969 21.9204 3.875 15.5 3.875C9.07969 3.875 3.875 9.07969 3.875 15.5C3.875 21.9204 9.07969 27.125 15.5 27.125Z" fill="white" stroke="white" stroke-width="0.1"/>
</svg>
