<svg width="25" height="25" viewBox="0 0 25 25" fill="none" xmlns="http://www.w3.org/2000/svg">
<g clip-path="url(#clip0_34_130)">
<path d="M24.5273 14.9701C24.382 14.53 24.0012 14.2233 23.5087 14.1497C23.2765 14.1151 23.0106 14.1298 22.696 14.1947C22.1475 14.3079 21.7406 14.3509 21.4436 14.3593C22.5645 12.4668 23.476 10.3086 24.0007 8.27705C24.8491 4.99218 24.3957 3.4957 23.8659 2.81876C22.4638 1.02717 20.4181 0.0646395 17.95 0.0351342C16.6335 0.0190659 15.4777 0.279014 14.8748 0.465899C14.3134 0.366914 13.7097 0.311599 13.0764 0.301353C11.8893 0.282429 10.8403 0.541202 9.944 1.07308C9.44767 0.905342 8.65137 0.668796 7.73167 0.517799C5.56855 0.162673 3.82522 0.439417 2.55006 1.34025C1.00594 2.43099 0.290084 4.32604 0.422493 6.97283C0.464484 7.8132 0.934608 10.37 1.67476 12.7948C2.10015 14.1885 2.55376 15.3459 3.02298 16.2351C3.68839 17.496 4.40038 18.2386 5.19971 18.5052C5.64777 18.6545 6.46177 18.759 7.31798 18.046C7.42648 18.1774 7.57121 18.308 7.76341 18.4293C8.0074 18.5832 8.30582 18.7089 8.60378 18.7834C9.67778 19.0519 10.6838 18.9848 11.542 18.6085C11.5472 18.7611 11.5513 18.9069 11.5548 19.0329C11.5605 19.2372 11.5661 19.4374 11.5736 19.6247C11.6245 20.8912 11.7106 21.876 11.9659 22.565C11.9799 22.6029 11.9988 22.6607 12.0187 22.7218C12.146 23.1119 12.3591 23.7647 12.9008 24.276C13.462 24.8056 14.1407 24.968 14.7622 24.968C15.074 24.968 15.3714 24.9271 15.6323 24.8712C16.5623 24.6719 17.6184 24.3683 18.3824 23.2804C19.1047 22.252 19.4559 20.7031 19.5194 18.2624C19.5277 18.1934 19.5353 18.1275 19.5426 18.0647C19.5475 18.0223 19.5526 17.979 19.5577 17.9357L19.7279 17.9507L19.7717 17.9536C20.7189 17.9968 21.877 17.7959 22.5883 17.4655C23.1504 17.2047 24.9513 16.2539 24.5273 14.9701Z" fill="black"/>
<path d="M22.9078 15.2199C20.0915 15.8009 19.8979 14.8473 19.8979 14.8473C22.8714 10.4351 24.1144 4.83444 23.0417 3.46371C20.1153 -0.275389 15.0495 1.49296 14.9649 1.53887L14.9377 1.54374C14.3813 1.42824 13.7586 1.35943 13.0588 1.34801C11.7845 1.32713 10.8178 1.68209 10.0844 2.23832C10.0844 2.23832 1.04741 -1.48454 1.46771 6.92052C1.55712 8.70864 4.03058 20.4502 6.98082 16.9037C8.05913 15.6069 9.10099 14.5104 9.10099 14.5104C9.61848 14.8541 10.238 15.0295 10.8874 14.9665L10.9379 14.9237C10.9222 15.0847 10.9294 15.2422 10.9581 15.4286C10.1981 16.2778 10.4214 16.4269 8.90207 16.7396C7.36472 17.0564 8.26785 17.6205 8.85751 17.7679C9.57235 17.9467 11.2262 18.1999 12.3436 16.6356L12.299 16.8141C12.5968 17.0526 12.8059 18.3656 12.7709 19.5558C12.7358 20.746 12.7124 21.5631 12.9471 22.2014C13.1817 22.8396 13.4156 24.2757 15.4129 23.8477C17.0818 23.4901 17.9466 22.5633 18.0669 21.0173C18.1523 19.9182 18.3455 20.0807 18.3577 19.0981L18.5127 18.6329C18.6914 17.143 18.5411 16.6623 19.5693 16.8859L19.8192 16.9078C20.5759 16.9423 21.5664 16.7861 22.1477 16.5159C23.3995 15.935 24.1419 14.9651 22.9076 15.2199H22.9078Z" fill="#336791"/>
<path d="M10.6133 7.72005C10.3596 7.68472 10.1297 7.71741 10.0134 7.80543C9.94795 7.85498 9.92773 7.91236 9.9223 7.95189C9.90769 8.05653 9.98103 8.1722 10.026 8.23188C10.1535 8.40079 10.3397 8.51691 10.524 8.5425C10.5507 8.54619 10.5772 8.54798 10.6037 8.54798C10.911 8.54798 11.1904 8.30869 11.215 8.13206C11.2458 7.91085 10.9247 7.76338 10.6133 7.72005Z" fill="white"/>
<path d="M19.0209 7.72704C18.9967 7.55365 18.688 7.50421 18.3952 7.54491C18.1028 7.58567 17.8193 7.71763 17.8429 7.89142C17.862 8.02657 18.1059 8.25729 18.3948 8.25724C18.4192 8.25724 18.4438 8.25561 18.4686 8.25214C18.6614 8.22544 18.8029 8.10299 18.8701 8.03239C18.9725 7.9249 19.0317 7.80497 19.0209 7.72704Z" fill="white"/>
<path d="M23.8449 15.1538C23.7375 14.8291 23.3919 14.7246 22.8176 14.8432C21.1126 15.1951 20.502 14.9513 20.3015 14.8037C21.6268 12.7847 22.717 10.3443 23.3052 8.0672C23.5838 6.98861 23.7377 5.98694 23.7503 5.17054C23.7642 4.2743 23.6116 3.61583 23.2968 3.21357C22.0276 1.59184 20.165 0.721972 17.9102 0.698065C16.3601 0.680653 15.0505 1.07738 14.7966 1.1889C14.2619 1.05594 13.679 0.974306 13.0445 0.963892C11.8808 0.945081 10.875 1.22367 10.0422 1.79149C9.68048 1.6569 8.74561 1.33598 7.60241 1.15184C5.62584 0.833554 4.05523 1.07469 2.93437 1.86876C1.59695 2.81628 0.979525 4.51 1.09917 6.90278C1.13942 7.70788 1.59807 10.1844 2.32198 12.5561C3.27483 15.6776 4.31054 17.4448 5.40038 17.8083C5.52792 17.8508 5.67505 17.8806 5.83719 17.8806C6.23476 17.8806 6.72212 17.7014 7.22926 17.0918C8.07158 16.0784 8.85803 15.2292 9.14793 14.9207C9.57635 15.1507 10.0469 15.2791 10.5284 15.2919C10.5292 15.3045 10.5305 15.3171 10.5316 15.3297C10.435 15.4442 10.3558 15.5446 10.2883 15.6303C9.95476 16.0537 9.88534 16.1418 8.81173 16.3629C8.50638 16.4259 7.69518 16.5931 7.68337 17.1616C7.67043 17.7828 8.64209 18.0437 8.75283 18.0714C9.13864 18.168 9.51028 18.2156 9.86474 18.2156C10.7268 18.2155 11.4854 17.9322 12.0917 17.3841C12.073 19.5986 12.1654 21.7809 12.4312 22.4458C12.649 22.99 13.181 24.3203 14.8616 24.3202C15.1081 24.3202 15.3796 24.2915 15.6782 24.2275C17.432 23.8514 18.1936 23.0763 18.4883 21.3673C18.6459 20.454 18.9165 18.273 19.0437 17.1031C19.3123 17.1869 19.6581 17.2252 20.0318 17.2252C20.8114 17.2252 21.7109 17.0596 22.275 16.7977C22.9087 16.5035 24.0523 15.7812 23.8449 15.1538ZM19.6682 7.24845C19.6624 7.59383 19.6148 7.90736 19.5645 8.23466C19.5103 8.58665 19.4542 8.95057 19.44 9.39236C19.4261 9.82229 19.4798 10.2693 19.5318 10.7015C19.6367 11.5746 19.7443 12.4734 19.3275 13.3604C19.2627 13.2453 19.2002 13.1198 19.1429 12.9808C19.0911 12.8552 18.9786 12.6535 18.8229 12.3743C18.2169 11.2876 16.7978 8.74274 17.5243 7.70429C17.7406 7.39513 18.2897 7.07741 19.6682 7.24845ZM17.9974 1.39746C20.0176 1.44208 21.6157 2.19785 22.7472 3.64366C23.615 4.75265 22.6594 9.79877 19.893 14.1521C19.8657 14.1173 19.8378 14.0823 19.8091 14.0463C19.7976 14.032 19.7859 14.0173 19.7741 14.0026C20.4889 12.822 20.3491 11.6539 20.2247 10.6183C20.1736 10.1933 20.1253 9.79183 20.1376 9.41481C20.1503 9.01506 20.2032 8.67237 20.2542 8.34092C20.3171 7.93244 20.381 7.50985 20.3633 7.01162C20.3765 6.95939 20.3818 6.89763 20.3749 6.82434C20.3299 6.34655 19.7845 4.91681 18.6727 3.62255C18.0646 2.91476 17.1777 2.1226 15.9668 1.58832C16.4877 1.48037 17.1999 1.37971 17.9974 1.39746ZM6.69262 16.6455C6.13392 17.3173 5.74806 17.1886 5.62119 17.1463C4.79443 16.8705 3.8352 15.1232 2.98946 12.3523C2.25766 9.95481 1.82997 7.54395 1.79615 6.8679C1.68927 4.72987 2.20755 3.23977 3.33664 2.43904C5.17414 1.13594 8.1952 1.9159 9.40911 2.3115C9.39165 2.32869 9.37351 2.34481 9.35621 2.36228C7.36424 4.37407 7.41149 7.81123 7.41636 8.02129C7.4162 8.10236 7.42297 8.21714 7.43232 8.37502C7.46659 8.95309 7.53035 10.029 7.35999 11.2476C7.2016 12.3798 7.55062 13.4881 8.31742 14.2882C8.39681 14.371 8.47967 14.4487 8.56528 14.5219C8.22392 14.8874 7.48215 15.6957 6.69262 16.6455ZM8.82131 13.8053C8.20326 13.1605 7.9226 12.2635 8.05115 11.3442C8.23109 10.057 8.16463 8.93596 8.12897 8.3337C8.12399 8.24944 8.11956 8.17559 8.11693 8.11731C8.40795 7.85932 9.75651 7.1367 10.7182 7.35706C11.1571 7.45761 11.4245 7.75642 11.5357 8.27049C12.1111 10.9317 11.6119 12.0409 11.2107 12.9323C11.128 13.1159 11.0499 13.2895 10.9832 13.4691L10.9315 13.6079C10.8006 13.9588 10.6788 14.2851 10.6034 14.595C9.94642 14.593 9.30727 14.3124 8.82131 13.8053ZM8.92214 17.3943C8.73033 17.3464 8.55777 17.2631 8.45655 17.1941C8.54109 17.1543 8.69158 17.1002 8.95254 17.0465C10.2156 16.7864 10.4106 16.6029 10.8365 16.0621C10.9342 15.9382 11.0449 15.7976 11.1982 15.6264L11.1984 15.6261C11.4267 15.3705 11.5311 15.4138 11.7205 15.4924C11.8741 15.5559 12.0235 15.7483 12.0842 15.96C12.1128 16.06 12.1451 16.2499 12.0397 16.3975C11.1499 17.6434 9.85332 17.6273 8.92214 17.3943ZM15.5319 23.5451C13.9868 23.8762 13.4397 23.0878 13.0792 22.1866C12.8466 21.6047 12.7322 18.981 12.8134 16.0836C12.8144 16.045 12.8089 16.0078 12.7983 15.9728C12.7891 15.9052 12.7748 15.8369 12.7551 15.7681C12.6344 15.3465 12.3404 14.9938 11.9877 14.8476C11.8476 14.7896 11.5903 14.683 11.2812 14.7621C11.3472 14.4905 11.4615 14.1839 11.5854 13.8517L11.6374 13.712C11.696 13.5545 11.7694 13.3914 11.8471 13.2187C12.2669 12.2861 12.8418 11.0087 12.2178 8.12297C11.9841 7.04213 11.2036 6.51434 10.0204 6.6369C9.31108 6.7103 8.66219 6.9965 8.33853 7.1606C8.26894 7.19588 8.20528 7.22992 8.14582 7.26312C8.23613 6.17405 8.57748 4.13887 9.85421 2.85122C10.658 2.04052 11.7286 1.64016 13.033 1.66172C15.6031 1.70382 17.2512 3.02276 18.1813 4.12185C18.9827 5.06898 19.4168 6.023 19.59 6.53752C18.2874 6.40511 17.4016 6.66226 16.9524 7.30427C15.9755 8.70081 17.4869 11.4115 18.2134 12.7142C18.3466 12.953 18.4616 13.1593 18.4977 13.247C18.7343 13.8203 19.0405 14.203 19.2641 14.4824C19.3327 14.568 19.3992 14.6511 19.4497 14.7236C19.0552 14.8373 18.3466 15.1001 18.4112 16.4136C18.3591 17.0727 17.9887 20.1585 17.8006 21.2488C17.5522 22.6891 17.0222 23.2256 15.5319 23.5451ZM21.9811 16.1647C21.5777 16.352 20.9027 16.4925 20.2613 16.5226C19.553 16.5558 19.1924 16.4433 19.1076 16.3741C19.0677 15.5555 19.3725 15.47 19.6949 15.3795C19.7456 15.3652 19.795 15.3514 19.8427 15.3347C19.8724 15.3588 19.9049 15.3828 19.9404 15.4062C20.5097 15.782 21.5252 15.8225 22.9588 15.5266C22.964 15.5255 22.9693 15.5245 22.9745 15.5235C22.7812 15.7042 22.4503 15.9469 21.9811 16.1647Z" fill="white"/>
</g>
<defs>
<clipPath id="clip0_34_130">
<rect width="25" height="25" fill="white"/>
</clipPath>
</defs>
</svg>
