<svg width="40" height="40" viewBox="0 0 40 40" fill="none" xmlns="http://www.w3.org/2000/svg">
<path d="M20 0C31.0458 0 40 8.95417 40 20C40 28.88 34.21 36.4042 26.2008 39.015C26.2033 39.0075 26.2067 38.9967 26.2067 38.9967C26.2067 38.9967 24.8567 38.3642 24.885 37.235C24.9167 35.9925 24.885 33.0925 24.885 32.0283C24.885 30.2008 23.7283 28.9058 23.7283 28.9058C23.7283 28.9058 32.7983 29.0075 32.7983 19.33C32.7983 15.5958 30.8467 13.6533 30.8467 13.6533C30.8467 13.6533 31.8717 9.66667 30.4917 7.97667C28.945 7.81 26.175 9.455 24.9917 10.2242C24.9917 10.2242 23.1167 9.45583 19.9992 9.45583C16.8808 9.45583 15.0067 10.2242 15.0067 10.2242C13.8242 9.45583 11.0533 7.81 9.50667 7.97667C8.12667 9.6675 9.15167 13.6533 9.15167 13.6533C9.15167 13.6533 7.2 15.5967 7.2 19.33C7.2 29.0075 16.27 28.9058 16.27 28.9058C16.27 28.9058 15.3558 29.9383 15.1567 31.4567C14.5233 31.6717 13.5925 31.9367 12.84 31.9367C10.8717 31.9367 9.37417 30.0233 8.82583 29.1383C8.285 28.265 7.17583 27.5325 6.14167 27.5325C5.46083 27.5325 5.12833 27.8733 5.12833 28.2625C5.12833 28.6517 6.08333 28.9233 6.71333 29.645C8.04167 31.1667 8.0175 34.5892 12.7508 34.5892C13.265 34.5892 14.3142 34.4625 15.1033 34.3567C15.0983 35.4342 15.0975 36.5708 15.1142 37.235C15.1425 38.3642 13.7925 38.9967 13.7925 38.9967C13.7925 38.9967 13.7958 39.0075 13.7983 39.015C5.79 36.4042 0 28.88 0 20C0 8.95417 8.95417 0 20 0Z" fill="black"/>
</svg>
