<svg width="40" height="42" viewBox="0 0 40 42" fill="none" xmlns="http://www.w3.org/2000/svg">
<g clip-path="url(#clip0_35_205)">
<path d="M20 41.9221C19.3789 41.9221 18.7992 41.768 18.2609 41.4984L12.7536 38.4558C11.9255 38.0322 12.3395 37.8781 12.588 37.8011C13.706 37.4545 13.913 37.3775 15.0725 36.7612C15.1967 36.6842 15.3623 36.7227 15.4865 36.7998L19.7101 39.1491C19.8758 39.2261 20.0828 39.2261 20.207 39.1491L36.7288 30.2524C36.8944 30.1754 36.9772 30.0214 36.9772 29.8288V12.074C36.9772 11.8815 36.8944 11.7274 36.7288 11.6504L20.207 2.79224C20.0414 2.71521 19.8344 2.71521 19.7101 2.79224L3.18841 11.6504C3.02277 11.7274 2.93996 11.92 2.93996 12.074V29.8288C2.93996 29.9828 3.02277 30.1754 3.18841 30.2524L7.70186 32.6788C10.1449 33.8342 11.677 32.4862 11.677 31.1383V13.6146C11.677 13.3835 11.8841 13.1524 12.1739 13.1524H14.2857C14.5342 13.1524 14.7826 13.345 14.7826 13.6146V31.1383C14.7826 34.1808 13.0021 35.9525 9.89648 35.9525C8.9441 35.9525 8.19876 35.9525 6.08696 34.9896L1.73913 32.6788C0.662526 32.1011 0 31.0227 0 29.8673V12.1125C0 10.9571 0.662526 9.87874 1.73913 9.30104L18.2609 0.404393C19.2961 -0.134798 20.7039 -0.134798 21.7391 0.404393L38.2609 9.30104C39.3375 9.87874 40 10.9571 40 12.1125V29.8673C40 31.0227 39.3375 32.1011 38.2609 32.6788L21.7391 41.5754C21.2008 41.8065 20.5797 41.9221 20 41.9221ZM25.0932 29.7133C17.8468 29.7133 16.3561 26.6322 16.3561 24.0132C16.3561 23.7822 16.5631 23.5511 16.853 23.5511H19.0062C19.2547 23.5511 19.4617 23.7051 19.4617 23.9362C19.793 25.9774 20.7453 26.9788 25.1346 26.9788C28.6128 26.9788 30.1035 26.247 30.1035 24.5139C30.1035 23.5126 29.6894 22.7808 24.265 22.2801C19.7516 21.8565 16.9358 20.9321 16.9358 17.5815C16.9358 14.4619 19.7516 12.6132 24.472 12.6132C29.7723 12.6132 32.381 14.3078 32.7122 18.0051C32.7122 18.1207 32.6708 18.2362 32.588 18.3517C32.5052 18.4288 32.381 18.5058 32.2567 18.5058H30.1035C29.8965 18.5058 29.6894 18.3517 29.648 18.1592C29.1511 16.0409 27.8675 15.3477 24.472 15.3477C20.6625 15.3477 20.207 16.5801 20.207 17.5044C20.207 18.6213 20.7453 18.968 25.8799 19.5842C30.9731 20.2004 33.3747 21.0862 33.3747 24.3984C33.3333 27.7876 30.352 29.7133 25.0932 29.7133Z" fill="#539E43"/>
</g>
<defs>
<clipPath id="clip0_35_205">
<rect width="40" height="42" fill="white"/>
</clipPath>
</defs>
</svg>
