<svg width="26" height="26" viewBox="0 0 26 26" fill="none" xmlns="http://www.w3.org/2000/svg">
<path d="M15.1766 12.9804C15.1766 11.8149 14.2021 10.87 13 10.87C11.798 10.87 10.8234 11.8149 10.8234 12.9804C10.8234 14.146 11.798 15.0909 13 15.0909C14.2021 15.0909 15.1766 14.146 15.1766 12.9804Z" fill="#53C1DE"/>
<path fill-rule="evenodd" clip-rule="evenodd" d="M20.0691 9.06238C20.5287 7.25138 21.1065 3.89308 19.0697 2.7545C17.0424 1.6209 14.4043 3.7931 13.0113 5.09696C11.6223 3.80609 8.91012 1.64317 6.87507 2.78536C4.8486 3.92277 5.47352 7.2254 5.94336 9.04776C4.053 9.56832 0.8125 10.6896 0.8125 12.9804C0.8125 15.2648 4.04963 16.4846 5.9288 17.0047C5.45722 18.8372 4.86359 22.0926 6.89266 23.2275C8.93531 24.3695 11.6391 22.258 13.045 20.9399C14.447 22.2514 17.0597 24.3767 19.0874 23.2386C21.1214 22.097 20.5917 18.7837 20.1218 16.9508C21.9434 16.4296 25.1875 15.2362 25.1875 12.9804C25.1875 10.7116 21.9296 9.58124 20.0691 9.06238ZM19.8382 15.9794C19.5297 15.0325 19.1133 14.0256 18.6039 12.9855C19.0901 11.9698 19.4903 10.9759 19.7902 10.0351C21.1542 10.4185 24.1463 11.2948 24.1463 12.9804C24.1463 14.6819 21.275 15.5664 19.8382 15.9794ZM18.5656 22.3649C17.0527 23.2139 14.8055 21.1815 13.7701 20.2157C14.457 19.4873 15.1434 18.6405 15.8133 17.7002C16.9917 17.5989 18.1049 17.4332 19.1145 17.2069C19.4452 18.5034 20.0852 21.512 18.5656 22.3649ZM7.41294 22.3528C5.89991 21.5069 6.59147 18.6019 6.9384 17.2521C7.93678 17.4662 9.04199 17.6203 10.2232 17.7131C10.8975 18.6332 11.6038 19.479 12.3155 20.2196C11.4362 21.0444 8.93303 23.2026 7.41294 22.3528ZM1.85371 12.9804C1.85371 11.2726 4.82793 10.4027 6.22297 10.0202C6.52804 10.9822 6.92815 11.988 7.411 13.005C6.92189 14.0372 6.51606 15.059 6.20819 16.0322C4.878 15.663 1.85371 14.6893 1.85371 12.9804ZM7.39676 3.65913C8.91597 2.8065 11.2732 4.88299 12.2817 5.8176C11.5736 6.55487 10.8738 7.39424 10.2052 8.30903C9.05889 8.41205 7.96148 8.57748 6.95264 8.79913C6.57414 7.32933 5.87918 4.51083 7.39676 3.65913ZM16.5582 9.40639C17.3359 9.50154 18.0811 9.62812 18.7807 9.78299C18.5707 10.4357 18.3089 11.1183 18.0005 11.8181C17.5536 10.9958 17.0738 10.19 16.5582 9.40639ZM13.0116 6.53908C13.4919 7.04354 13.9729 7.60687 14.4461 8.21803C13.4863 8.17399 12.5249 8.17383 11.5651 8.21738C12.0387 7.61189 12.5239 7.0494 13.0116 6.53908ZM8.00841 11.8173C7.70517 11.12 7.44573 10.4344 7.23387 9.77234C7.92933 9.62146 8.671 9.49812 9.44369 9.40452C8.92661 10.1865 8.44764 10.9919 8.00841 11.8173ZM9.46587 16.6284C8.66767 16.542 7.91477 16.4249 7.21952 16.2782C7.43473 15.6045 7.69988 14.9041 8.00959 14.1918C8.45487 15.0258 8.94116 15.839 9.46587 16.6284ZM13.0405 19.4931C12.547 18.9767 12.0547 18.4056 11.5739 17.7914C12.5391 17.8281 13.5063 17.8282 14.4714 17.7864C13.9968 18.4119 13.5175 18.9838 13.0405 19.4931ZM18.0104 14.1555C18.3363 14.8756 18.6109 15.5721 18.829 16.2345C18.1222 16.3909 17.3592 16.5168 16.5553 16.6103C17.0747 15.8118 17.5621 14.9935 18.0104 14.1555ZM15.2322 16.7327C13.7557 16.835 12.2701 16.8339 10.7931 16.7411C9.95386 15.5525 9.20676 14.3024 8.56188 13.0047C9.20367 11.7097 9.94532 10.4621 10.7806 9.27534C12.2586 9.16703 13.7457 9.16671 15.2237 9.27599C16.0518 10.4626 16.7923 11.707 17.449 12.9903C16.8001 14.2847 16.0546 15.5348 15.2322 16.7327ZM18.5496 3.62911C20.0692 4.47894 19.3928 7.49715 19.0608 8.80961C18.0496 8.58333 16.9514 8.41498 15.8017 8.31033C15.1319 7.38566 14.438 6.54483 13.7413 5.81708C14.7627 4.86233 17.0447 2.7876 18.5496 3.62911Z" fill="#53C1DE"/>
</svg>
