<svg width="42" height="42" viewBox="0 0 42 42" fill="none" xmlns="http://www.w3.org/2000/svg">
<g clip-path="url(#clip0_35_224)">
<mask id="mask0_35_224" style="mask-type:luminance" maskUnits="userSpaceOnUse" x="0" y="0" width="42" height="42">
<path d="M21 42C32.598 42 42 32.598 42 21C42 9.40202 32.598 0 21 0C9.40202 0 0 9.40202 0 21C0 32.598 9.40202 42 21 42Z" fill="white"/>
</mask>
<g mask="url(#mask0_35_224)">
<path d="M21 42C32.598 42 42 32.598 42 21C42 9.40202 32.598 0 21 0C9.40202 0 0 9.40202 0 21C0 32.598 9.40202 42 21 42Z" fill="black"/>
<path d="M34.8852 36.7548L16.1331 12.6001H12.6V29.3931H15.4265V16.1896L32.6664 38.4639C33.4443 37.9434 34.1854 37.3719 34.8852 36.7548Z" fill="url(#paint0_linear_35_224)"/>
<path d="M29.6334 12.6001H26.8334V29.4001H29.6334V12.6001Z" fill="url(#paint1_linear_35_224)"/>
</g>
</g>
<defs>
<linearGradient id="paint0_linear_35_224" x1="1252.38" y1="1470.93" x2="1996.59" y2="2393.33" gradientUnits="userSpaceOnUse">
<stop stop-color="white"/>
<stop offset="1" stop-color="white" stop-opacity="0"/>
</linearGradient>
<linearGradient id="paint1_linear_35_224" x1="166.833" y1="12.6001" x2="162.143" y2="1246.33" gradientUnits="userSpaceOnUse">
<stop stop-color="white"/>
<stop offset="1" stop-color="white" stop-opacity="0"/>
</linearGradient>
<clipPath id="clip0_35_224">
<rect width="42" height="42" fill="white"/>
</clipPath>
</defs>
</svg>
