<svg width="52" height="42" viewBox="0 0 52 42" fill="none" xmlns="http://www.w3.org/2000/svg">
<g clip-path="url(#clip0_35_220)">
<path d="M10.8006 0C7.83349 0 5.63803 2.63217 5.7363 5.48677C5.83061 8.22926 5.7081 11.7811 4.82586 14.6777C3.94098 17.5828 2.44444 19.423 0 19.6593V22.3267C2.44444 22.563 3.94098 24.4033 4.82586 27.3083C5.7081 30.2049 5.83061 33.7568 5.7363 36.4993C5.63803 39.3534 7.83349 41.986 10.801 41.986H41.2034C44.1705 41.986 46.3655 39.3539 46.2672 36.4993C46.1729 33.7568 46.2954 30.2049 47.1777 27.3083C48.063 24.4033 49.5556 22.563 52 22.3267V19.6593C49.5556 19.423 48.063 17.5828 47.1777 14.6777C46.2954 11.7816 46.1729 8.22926 46.2672 5.48677C46.3655 2.63261 44.1705 0 41.2034 0H10.8001H10.8006ZM35.2542 25.8451C35.2542 29.7757 32.3616 32.1595 27.5613 32.1595H19.3898C18.9031 32.1595 18.5085 31.7596 18.5085 31.2662V10.7198C18.5085 10.2265 18.9031 9.82652 19.3898 9.82652H27.5146C31.5173 9.82652 34.1442 12.0241 34.1442 15.3982C34.1442 17.7663 32.377 19.8866 30.1256 20.2578V20.3815C33.1905 20.7223 35.2542 22.8735 35.2542 25.8451ZM26.6703 12.6583H22.011V19.3288H25.9352C28.9688 19.3288 30.6417 18.0906 30.6417 15.8774C30.6417 13.8036 29.2033 12.6583 26.6703 12.6583ZM22.011 21.9757V29.3268H26.8417C30 29.3268 31.6733 28.0422 31.6733 25.628C31.6733 23.2134 29.9533 21.9752 26.6385 21.9752H22.011V21.9757Z" fill="#7E13F8"/>
</g>
<defs>
<clipPath id="clip0_35_220">
<rect width="52" height="42" fill="white"/>
</clipPath>
</defs>
</svg>
