<svg width="75" height="42" viewBox="0 0 75 42" fill="none" xmlns="http://www.w3.org/2000/svg">
<g clip-path="url(#clip0_35_247)">
<path d="M22.311 27.7149L24.5903 33.7907C25.1024 35.1702 25.316 36.1332 25.2305 36.6821C26.4772 33.9393 27.3481 30.9501 27.8436 27.7149H30.5843C29.4059 32.9819 27.8515 36.8094 25.9222 39.197C24.4189 41.0368 22.7721 41.9567 20.9789 41.9567C20.5008 41.9567 19.9113 41.8381 19.2118 41.6024V40.3328C19.5536 40.374 19.9546 40.396 20.4157 40.396C21.2523 40.396 21.9265 40.2055 22.4395 39.8254C23.0537 39.3622 23.3611 38.8416 23.3611 38.2646C23.3611 37.8705 23.1213 37.0619 22.644 35.8387L19.4681 27.7149H22.311ZM4.86681 23.9805L9.04173 34.4452H9.06735L13.2679 23.9805H16.6997C17.4512 29.1702 17.895 33.9187 18.0313 38.2227H15.1379C15.0361 34.1992 14.754 30.4159 14.2929 26.8719H14.2674L9.86149 38.2227H7.65818L3.27892 26.8719H3.25312C2.92818 30.2754 2.72375 34.0588 2.6385 38.2227H0C0.170505 33.1587 0.597214 28.4117 1.28013 23.9805H4.86681Z" fill="#00758F"/>
<path d="M51.6355 23.769C56.1262 23.769 58.3718 26.1262 58.3718 30.8379C58.3718 33.3984 57.6964 35.3324 56.3471 36.6391C56.1039 36.8778 55.8352 37.0841 55.5522 37.2752L58.7302 38.5661L58.7271 38.566L57.5987 40.1668L53.4601 38.1829C52.7741 38.3498 52.0193 38.4332 51.1967 38.4332C48.9917 38.4332 47.3447 37.9053 46.2556 36.8508C45.0603 35.6841 44.4631 33.8476 44.4631 31.3441C44.4631 28.7982 45.1371 26.8714 46.4868 25.5632C47.7161 24.3665 49.4327 23.769 51.6355 23.769ZM37.8835 23.7899C39.4885 23.7899 40.9481 24.1427 42.2626 24.8459L41.5949 26.0681C40.4701 25.6753 39.3609 25.4781 38.2673 25.4781C37.38 25.4781 36.6962 25.6536 36.2195 26.0067C35.7401 26.3567 35.4437 26.8071 35.4437 27.356C35.4437 28.1995 36.1753 28.9311 37.5259 29.5492C37.8893 29.7116 38.3626 29.928 38.8489 30.1523L38.9497 30.1988C38.9665 30.2066 38.9833 30.2144 39.0001 30.2221L39.1011 30.2688C39.1179 30.2766 39.1347 30.2844 39.1515 30.2922L39.2523 30.3388C40.2749 30.8124 41.2369 31.2644 41.2369 31.2644C42.5875 32.052 43.2606 32.8918 43.2606 34.2749C43.2606 35.4827 42.7219 36.4743 41.648 37.2501C40.5732 38.0225 39.1292 38.4098 37.3211 38.4098C35.6299 38.4098 33.9909 37.9641 32.4032 37.08L33.1459 35.8566C34.5122 36.4192 35.7486 36.7001 36.8587 36.7001C37.9 36.7001 38.715 36.5092 39.3046 36.132C39.8929 35.7522 40.2455 35.2223 40.2455 34.5503C40.2455 33.7047 39.5296 32.9819 38.216 32.3754C37.8749 32.2213 37.438 32.0199 36.9863 31.8101L36.8856 31.7634C36.7009 31.6775 36.5146 31.5907 36.3323 31.5055L36.2333 31.4593C35.3465 31.0448 34.5796 30.6827 34.5796 30.6827C33.2664 29.8936 32.6081 29.047 32.6081 27.652C32.6081 26.4983 33.0991 25.5658 34.0797 24.8563C35.0625 24.1453 36.3306 23.7899 37.8835 23.7899ZM63.6494 23.9804V36.4706H69.1042V38.2226H60.8829V23.9804H63.6494ZM72.1354 36.4761V36.7721H71.5355V38.2211H71.0771V36.7721H70.454V36.4761H72.1354ZM73.2428 36.4761L73.8186 37.6656L74.3475 36.4761H74.9974V38.2211H74.5653V36.8931L73.9632 38.2211H73.6516L73.0486 36.8931H73.0254V38.2211H72.6165V36.4761H73.2428ZM51.3529 25.5206C48.7065 25.5206 47.3827 27.3149 47.3827 30.9011C47.3827 32.9553 47.7335 34.4451 48.4338 35.3735C49.0824 36.2328 50.0982 36.6615 51.4815 36.6615C54.1279 36.6615 55.4517 34.8533 55.4517 31.2383C55.4517 29.2128 55.1009 27.736 54.4015 26.8071C53.7521 25.9497 52.7366 25.5206 51.3529 25.5206Z" fill="#F29111"/>
<path d="M44.4166 0.882508C45.2946 -0.889681 48.3641 0.452329 49.5554 1.07149C49.8473 1.22628 50.1821 1.55351 50.5169 1.67448C51.0391 1.69139 51.5609 1.72485 52.084 1.74286C53.0651 1.93222 53.9841 2.08701 54.7572 2.4488C58.3503 4.18716 60.6892 5.95861 62.8419 8.88456C63.3016 9.50446 63.5315 10.1751 63.9073 10.8457C64.4287 11.8454 65.0147 12.8948 65.62 13.8402C65.8909 14.2883 66.1007 14.7867 66.477 15.1651C66.6238 15.3382 67.0411 15.3892 67.2906 15.4926C67.9803 15.7858 68.8158 16.0085 69.4644 16.3527C70.6758 16.9732 71.847 17.7126 72.9115 18.4695C73.3083 18.7617 73.5788 19.1754 73.9569 19.4844V19.6404C73.6212 19.725 73.2869 19.8116 72.9521 19.881C72.221 20.0354 71.5734 20.0005 70.8641 20.1549C70.4258 20.2593 69.8817 20.3971 69.422 20.4321C69.4425 20.449 69.4644 20.4673 69.4644 20.4673C69.7349 21.102 71.198 21.6184 71.8671 21.998C72.6799 22.4798 73.4329 23.0644 74.039 23.7354C74.2483 23.9067 74.4577 24.0626 74.6661 24.2333C74.8116 24.4064 74.8527 24.6301 75 24.7846V24.8367C74.8368 24.7893 74.7195 24.6992 74.6082 24.6048L74.5419 24.5479C74.4756 24.4912 74.4086 24.4357 74.3322 24.3899C73.8712 24.131 73.4132 23.8215 72.9521 23.581C72.1594 23.1678 71.2399 22.9279 70.4258 22.5131C69.9656 22.2723 69.5269 21.998 69.0881 21.7225C68.6904 21.4809 68.2525 21.017 68.0026 20.6729C67.8553 20.4828 67.8352 20.2593 67.6669 20.1218C67.697 19.892 67.9533 19.8237 68.2117 19.7676L68.2713 19.7548C68.3604 19.7358 68.4477 19.7168 68.5239 19.6917C69.6099 19.3128 70.9047 19.1754 72.5768 19.2098C72.5138 18.8649 71.4689 18.4352 71.1355 18.2286C70.466 17.8322 69.7572 17.4186 69.047 17.0578C68.6707 16.8688 68.0222 16.7309 67.6053 16.5765C67.0411 16.3871 65.7873 16.1978 65.4749 15.837C64.9439 15.2683 64.5624 14.5899 64.1921 13.9046L64.0912 13.7176C64.0577 13.6553 64.0241 13.5929 63.9903 13.5307C63.5525 12.7055 63.0088 11.8452 62.5701 11.0003C62.3406 10.5881 62.2353 10.2263 61.984 9.83107C60.4597 7.40516 58.2034 5.37412 55.4678 3.94571C54.5688 3.48097 53.5663 3.05079 52.4598 2.75849C51.8327 2.60297 51.0802 2.689 50.412 2.56951H49.9723C49.5969 2.48274 49.2836 2.15587 48.9908 1.98343C48.344 1.62275 47.6964 1.38045 46.9229 1.12308C46.6519 1.01976 45.878 0.779306 45.6079 0.968654C45.4405 1.00322 45.3557 1.05506 45.3147 1.19294C45.1482 1.39884 45.2946 1.70879 45.3981 1.89851C45.7119 2.44855 46.1502 2.77541 46.5479 3.24015C46.9019 3.65231 47.3415 4.11705 47.5924 4.56525C48.1338 5.52855 48.386 6.59591 48.8877 7.55921C49.0738 7.92137 49.368 8.33354 49.6389 8.6604C49.8683 8.91961 50.2857 9.10713 50.412 9.43546C50.6637 9.7796 50.0353 10.9153 49.8898 11.276C49.3456 12.6873 49.451 14.6489 50.0777 15.8723C50.0888 15.8937 50.1 15.9152 50.1111 15.9368L50.1445 16.0021C50.3733 16.4501 50.6182 16.9326 51.2266 17.0579C51.2685 17.0237 51.2266 17.0417 51.3096 17.0237C51.4569 16.0768 51.4984 15.165 51.8956 14.4242C52.1251 13.961 52.5835 13.6335 52.8977 13.2554C53.107 13.3584 53.107 13.669 53.232 13.8745C53.5038 14.4077 53.7958 14.9922 54.131 15.5269C54.8188 16.6281 55.5927 17.6956 56.4698 18.6589C56.7635 19.0028 57.1804 19.3816 57.5562 19.6915C57.7236 19.8115 57.9111 19.8808 58.037 20.0352H58.078V20.0872C57.4513 19.8974 57.0541 19.3648 56.5542 19.0538C55.6133 18.4693 54.4862 17.5915 53.8377 16.7491C53.5663 16.2657 53.2731 15.8022 52.9807 15.3211V15.2863C52.8557 15.4238 52.8977 15.5602 52.8352 15.7682C52.5638 16.6281 52.7727 17.609 51.8327 17.9182C50.7673 18.2804 49.9723 17.3337 49.6389 16.9035C48.573 15.4755 48.2811 13.0665 49.0328 11.1219C49.1997 10.6913 49.2225 10.1751 49.5139 9.83133C49.451 9.52064 49.1595 9.43571 48.9908 9.24525C48.6984 8.91986 48.448 8.54079 48.2191 8.17937C47.7794 7.47343 47.4665 6.62999 47.1327 5.87295C46.9858 5.56373 46.9439 5.25342 46.7974 4.96075C46.5479 4.51402 46.0877 4.06583 45.7329 3.67058C45.2522 3.10252 43.8524 2.00171 44.4166 0.882508ZM51.2681 4.25392C51.3239 4.29988 51.3913 4.34008 51.461 4.37961L51.5451 4.42706C51.6572 4.49076 51.7656 4.55797 51.8323 4.64954C51.9376 4.7705 51.9572 4.89 52.0836 5.01133C52.0836 5.42497 51.9376 5.69999 51.643 5.87132C51.643 5.87132 51.6229 5.88935 51.6024 5.90626C51.4355 5.6305 51.2891 5.35622 51.1208 5.08083C50.9137 4.84037 50.6209 4.64955 50.4522 4.3749H50.4115V4.34034C50.6637 4.28923 50.9137 4.25392 51.2681 4.25392Z" fill="#00758F"/>
</g>
<defs>
<clipPath id="clip0_35_247">
<rect width="75" height="42" fill="white"/>
</clipPath>
</defs>
</svg>
