<svg width="30" height="30" viewBox="0 0 30 30" fill="none" xmlns="http://www.w3.org/2000/svg">
<path d="M17.7262 5.34437C18.2263 5.47837 18.5232 5.99245 18.3892 6.49257L13.4222 25.0297C13.2881 25.5299 12.7741 25.8266 12.2739 25.6926C11.7738 25.5586 11.477 25.0445 11.611 24.5444L16.5781 6.00729C16.7121 5.50716 17.2261 5.21036 17.7262 5.34437Z" fill="black"/>
<path d="M20.5531 9.15975C20.8995 8.7749 21.4923 8.7437 21.8772 9.09006L24.049 11.0447C24.9695 11.8731 25.733 12.5602 26.2573 13.1834C26.8085 13.8387 27.2004 14.5427 27.2004 15.4119C27.2004 16.281 26.8085 16.9851 26.2573 17.6404C25.733 18.2636 24.9695 18.9507 24.049 19.7791L21.8772 21.7337C21.4923 22.0801 20.8995 22.0489 20.5531 21.6641C20.2068 21.2792 20.238 20.6865 20.6229 20.3401L22.7434 18.4315C23.7283 17.5452 24.3923 16.9447 24.8224 16.4334C25.2353 15.9426 25.3254 15.6562 25.3254 15.4119C25.3254 15.1676 25.2353 14.8811 24.8224 14.3904C24.3923 13.8791 23.7283 13.2786 22.7434 12.3923L20.6229 10.4837C20.238 10.1374 20.2068 9.5446 20.5531 9.15975Z" fill="black"/>
<path d="M9.37734 10.4837C9.76219 10.1374 9.79339 9.5446 9.44702 9.15975C9.10065 8.7749 8.50788 8.7437 8.12303 9.09006L5.95117 11.0447C5.03074 11.8731 4.26723 12.5602 3.74297 13.1834C3.19168 13.8387 2.7998 14.5427 2.7998 15.4119C2.7998 16.281 3.19168 16.9851 3.74297 17.6404C4.26723 18.2636 5.03073 18.9507 5.95114 19.779L8.12303 21.7337C8.50788 22.0801 9.10065 22.0489 9.44702 21.6641C9.79339 21.2792 9.76219 20.6865 9.37734 20.3401L7.25675 18.4315C6.2719 17.5452 5.6079 16.9447 5.17778 16.4334C4.76497 15.9426 4.6748 15.6562 4.6748 15.4119C4.6748 15.1676 4.76497 14.8811 5.17778 14.3904C5.6079 13.8791 6.2719 13.2786 7.25675 12.3923L9.37734 10.4837Z" fill="black"/>
</svg>
