<svg width="30" height="30" viewBox="0 0 30 30" fill="none" xmlns="http://www.w3.org/2000/svg">
<g clip-path="url(#clip0_40_65)">
<path d="M12.5946 7.90895H28.0659C29.134 7.90895 29.9998 7.04307 29.9998 5.97503C29.9998 4.90699 29.134 4.04111 28.0659 4.04111H12.5946C11.5265 4.04111 10.6606 4.90699 10.6606 5.97503C10.6606 7.04307 11.5264 7.90895 12.5946 7.90895Z" fill="black"/>
<path d="M28.0659 13.0661H12.5946C11.5265 13.0661 10.6606 13.932 10.6606 15C10.6606 16.068 11.5265 16.9339 12.5946 16.9339H28.0659C29.134 16.9339 29.9998 16.068 29.9998 15C29.9998 13.932 29.134 13.0661 28.0659 13.0661Z" fill="black"/>
<path d="M28.0659 22.091H12.5946C11.5265 22.091 10.6606 22.9569 10.6606 24.025C10.6606 25.093 11.5265 25.9589 12.5946 25.9589H28.0659C29.134 25.9589 29.9998 25.093 29.9998 24.025C29.9998 22.9569 29.134 22.091 28.0659 22.091Z" fill="black"/>
<path d="M6.28966 13.4611L5.0018 13.2739L4.42587 12.1069C4.26291 11.7768 3.92692 11.5678 3.5587 11.5678C3.19074 11.5678 2.8545 11.7768 2.69153 12.1069L2.11548 13.2739L0.827751 13.4611C0.46353 13.514 0.160807 13.7691 0.0470922 14.1192C-0.0666223 14.4692 0.0282687 14.8534 0.291669 15.1104L1.22356 16.0187L1.00348 17.3014C0.941208 17.6642 1.09038 18.0308 1.38807 18.2472C1.55658 18.3697 1.7559 18.4319 1.95652 18.4319C2.11033 18.4319 2.26491 18.3952 2.40635 18.3209L3.55845 17.7152L4.71055 18.3209C4.85211 18.3953 5.00657 18.4319 5.16038 18.4319C5.16128 18.4319 5.16231 18.4319 5.16308 18.4319C5.6971 18.4318 6.12992 17.999 6.12992 17.465C6.12992 17.3839 6.11999 17.305 6.10116 17.2297L5.89333 16.0187L6.82522 15.1104C7.08888 14.8534 7.18364 14.4692 7.06993 14.1192C6.9566 13.7691 6.65388 13.514 6.28966 13.4611Z" fill="black"/>
<path d="M6.28966 4.43615L5.0018 4.24895L4.42587 3.08189C4.26291 2.75184 3.92692 2.54285 3.5587 2.54285C3.19074 2.54285 2.8545 2.75184 2.69153 3.08189L2.11548 4.24895L0.827751 4.43615C0.46353 4.48902 0.160807 4.74416 0.0470922 5.0942C-0.0666223 5.44424 0.0282687 5.82845 0.291669 6.0854L1.22356 6.9937L1.00348 8.2764C0.941208 8.63921 1.09038 9.00588 1.38807 9.22222C1.55658 9.3447 1.7559 9.40697 1.95652 9.40697C2.11033 9.40697 2.26491 9.37023 2.40635 9.29597L3.55845 8.69026L4.71055 9.29597C4.85211 9.37036 5.00657 9.40697 5.16038 9.40697C5.16128 9.40697 5.16231 9.40697 5.16308 9.40697C5.6971 9.40697 6.12992 8.97403 6.12992 8.44001C6.12992 8.35892 6.11999 8.28001 6.10116 8.20472L5.89333 6.9937L6.82522 6.0854C7.08888 5.82845 7.18364 5.44424 7.06993 5.0942C6.9566 4.74416 6.65388 4.48902 6.28966 4.43615Z" fill="black"/>
<path d="M6.28966 22.4861L5.0018 22.2989L4.42587 21.1318C4.26291 20.8018 3.92692 20.5928 3.5587 20.5928C3.19074 20.5928 2.8545 20.8018 2.69153 21.1318L2.11548 22.2989L0.827751 22.4861C0.46353 22.5389 0.160807 22.7941 0.0470922 23.1441C-0.0666223 23.4942 0.0282687 23.8784 0.291669 24.1353L1.22356 25.0436L1.00348 26.3263C0.941208 26.6891 1.09038 27.0558 1.38807 27.2721C1.55658 27.3946 1.7559 27.4569 1.95652 27.4569C2.11033 27.4569 2.26491 27.4202 2.40635 27.3459L3.55845 26.7402L4.71055 27.3459C4.85211 27.4203 5.00657 27.4569 5.16038 27.4569C5.16128 27.4569 5.16231 27.4569 5.16308 27.4569C5.6971 27.4568 6.12992 27.024 6.12992 26.4899C6.12992 26.4088 6.11999 26.3299 6.10116 26.2546L5.89333 25.0436L6.82522 24.1353C7.08888 23.8784 7.18364 23.4942 7.06993 23.1441C6.9566 22.7941 6.65388 22.5389 6.28966 22.4861Z" fill="black"/>
</g>
<defs>
<clipPath id="clip0_40_65">
<rect width="30" height="30" fill="white"/>
</clipPath>
</defs>
</svg>
