<svg width="30" height="30" viewBox="0 0 30 30" fill="none" xmlns="http://www.w3.org/2000/svg">
<g clip-path="url(#clip0_40_83)">
<path d="M3.77246 27.3926L8.19401 25.6138L10.0585 30L14.7168 18.7691C12.305 18.6868 10.0942 17.7998 8.34504 16.3683L3.77246 27.3926Z" fill="black"/>
<path d="M21.6972 16.4705C19.9276 17.8745 17.7036 18.7287 15.2849 18.7735L19.9413 30L21.8058 25.6138L26.2273 27.3926L21.6972 16.4705Z" fill="black"/>
<path d="M15.0847 16.2367C19.5683 16.2367 23.2031 12.602 23.2031 8.11837C23.2031 3.63472 19.5683 0 15.0847 0C10.601 0 6.96631 3.63472 6.96631 8.11837C6.96631 12.602 10.601 16.2367 15.0847 16.2367Z" fill="black"/>
</g>
<defs>
<clipPath id="clip0_40_83">
<rect width="30" height="30" fill="white"/>
</clipPath>
</defs>
</svg>
