<svg width="30" height="30" viewBox="0 0 30 30" fill="none" xmlns="http://www.w3.org/2000/svg">
<path d="M3.75 11.25H26.25V9.375C26.25 8.87772 26.0525 8.40081 25.7008 8.04918C25.3492 7.69754 24.8723 7.5 24.375 7.5H5.625C5.12772 7.5 4.65081 7.69754 4.29917 8.04918C3.94754 8.40081 3.75 8.87772 3.75 9.375V11.25ZM3.75 13.125V22.5C3.75 22.9973 3.94754 23.4742 4.29917 23.8258C4.65081 24.1775 5.12772 24.375 5.625 24.375H24.375C24.8723 24.375 25.3492 24.1775 25.7008 23.8258C26.0525 23.4742 26.25 22.9973 26.25 22.5V13.125H3.75ZM5.625 5.625H24.375C25.3696 5.625 26.3234 6.02009 27.0266 6.72335C27.7299 7.42661 28.125 8.38044 28.125 9.375V22.5C28.125 23.4946 27.7299 24.4484 27.0266 25.1516C26.3234 25.8549 25.3696 26.25 24.375 26.25H5.625C4.63044 26.25 3.67661 25.8549 2.97335 25.1516C2.27009 24.4484 1.875 23.4946 1.875 22.5V9.375C1.875 8.38044 2.27009 7.42661 2.97335 6.72335C3.67661 6.02009 4.63044 5.625 5.625 5.625Z" fill="black"/>
<path d="M11.25 3.75V5.625H18.75V3.75H11.25ZM11.25 1.875H18.75C19.2473 1.875 19.7242 2.07254 20.0758 2.42417C20.4275 2.77581 20.625 3.25272 20.625 3.75V5.625C20.625 6.12228 20.4275 6.59919 20.0758 6.95083C19.7242 7.30246 19.2473 7.5 18.75 7.5H11.25C10.7527 7.5 10.2758 7.30246 9.92418 6.95083C9.57254 6.59919 9.375 6.12228 9.375 5.625V3.75C9.375 3.25272 9.57254 2.77581 9.92418 2.42417C10.2758 2.07254 10.7527 1.875 11.25 1.875Z" fill="black"/>
</svg>
