<svg width="27" height="27" viewBox="0 0 27 27" fill="none" xmlns="http://www.w3.org/2000/svg">
<path d="M5.73707 2.43262C3.72073 2.43262 2.08618 4.06717 2.08618 6.0835V20.687C2.08618 22.7034 3.72073 24.3379 5.73707 24.3379H20.3406C22.3569 24.3379 23.9915 22.7034 23.9915 20.687V6.0835C23.9915 4.06717 22.3569 2.43262 20.3406 2.43262H5.73707ZM6.825 7.12661H10.9648L13.9047 11.3041L17.472 7.12661H18.7759L14.4935 12.1405L19.7742 19.6439H15.6354L12.2239 14.7971L8.08406 19.6439H6.78017L11.6351 13.9608L6.825 7.12661ZM8.82157 8.16972L16.1794 18.6008H17.7776L10.4199 8.16972H8.82157Z" fill="white"/>
</svg>
