<svg width="27" height="27" viewBox="0 0 27 27" fill="none" xmlns="http://www.w3.org/2000/svg">
<path d="M22.1399 2.17139H5.45018C4.01069 2.17139 2.84241 3.33967 2.84241 4.77916V21.4689C2.84241 22.9084 4.01069 24.0767 5.45018 24.0767H22.1399C23.5794 24.0767 24.7477 22.9084 24.7477 21.4689V4.77916C24.7477 3.33967 23.5794 2.17139 22.1399 2.17139ZM9.62262 10.5163V20.4258H6.49329V10.5163H9.62262ZM6.49329 7.63207C6.49329 6.90189 7.11916 6.34382 8.05795 6.34382C8.99675 6.34382 9.58611 6.90189 9.62262 7.63207C9.62262 8.36224 9.03848 8.9516 8.05795 8.9516C7.11916 8.9516 6.49329 8.36224 6.49329 7.63207ZM21.0968 20.4258H17.9675C17.9675 20.4258 17.9675 15.5962 17.9675 15.2103C17.9675 14.1671 17.4459 13.124 16.1421 13.1032H16.1003C14.8382 13.1032 14.3166 14.1776 14.3166 15.2103C14.3166 15.6849 14.3166 20.4258 14.3166 20.4258H11.1873V10.5163H14.3166V11.8514C14.3166 11.8514 15.3232 10.5163 17.3468 10.5163C19.4174 10.5163 21.0968 11.9401 21.0968 14.8243V20.4258Z" fill="white"/>
</svg>
